mtllib green_maple_leaf_low-poly.mtl
o pPlane1_lambert1_0
usemtl lambert1
v 0 0.001778285016604847 0.034405035203582734
v 0.02041925861494409 0 0.034405035203582734
v 0.02041925861494409 0.0009293655843429505 0.013039107031246111
v 0.0018657725632390543 0.0025451623824575 0.013039107031246111
v 0.0011813862357723803 0.003262619005234113 -0.0031529223214181723
v 0.02041925861494409 0.001587219351815744 -0.0031529223214181723
v 0.02041925861494409 0.0009293655843429505 -0.019374527498158933
v 0 0.002707650004901363 -0.019374527498158933
v 0.02041925861494409 0 -0.034405035203582734
v -0.00046229368905066626 0.001738024464144755 -0.034405035203582734
v -0.02041925861494409 0.0009293655843429505 -0.019374527498158933
v -0.02041925861494409 0 -0.034405035203582734
v -0.02041925861494409 0.001587219351815744 -0.0031529223214181723
v -0.02041925861494409 0.0009293655843429505 0.013039107031246111
v -0.02041925861494409 0 0.034405035203582734
vt 0.5 1
vt 1 1
vt 1 0.75
vt 0.5 0.75
vt 0.5 0.5
vt 1 0.5
vt 1 0.25
vt 0.5 0.25
vt 1 0
vt 0.5 0
vt 0 0.25
vt 0 0
vt 0 0.5
vt 0 0.75
vt 0 1
vn -0.0045640845714443375 0.9992105522403675 0.03946443238568573
vn 0.08667887354654968 0.9952951814896578 0.04329289299839417
vn 0.0866833316832205 0.9953464464191182 0.0420886161465298
vn 0.0035468911076721433 0.9991547608763818 0.04095342942331813
vn 0.0008649087284253026 0.9999964628748922 0.002515187984142244
vn 0.08676016304334006 0.9962287514907443 -0.0009740697539590976
vn 0.08569430560857623 0.9949596852419179 -0.05207408885009515
vn -0.0012153081416149563 0.9987673825095034 -0.04962094982198732
vn 0.08465753563588242 0.9943451365108361 -0.06411591968697115
vn -0.0016738043755899037 0.9980108713523689 -0.0630198305408538
vn -0.08411125144534189 0.9953410399987462 -0.047132912858351826
vn -0.08659609407399621 0.9943445325142474 -0.06148225069197327
vn -0.07827614971709267 0.9969158145673944 0.005630546234237317
vn -0.07722761428806808 0.9962308934256979 0.03949560197805776
vn -0.07917726186384647 0.9962071364667411 0.0360874279560035
f 1/1/1 2/2/2 3/3/3
f 1/1/1 3/3/3 4/4/4
f 5/5/5 6/6/6 7/7/7
f 5/5/5 7/7/7 8/8/8
f 8/8/8 7/7/7 9/9/9
f 8/8/8 9/9/9 10/10/10
f 4/4/4 3/3/3 6/6/6
f 4/4/4 6/6/6 5/5/5
f 11/11/11 8/8/8 10/10/10
f 11/11/11 10/10/10 12/12/12
f 13/13/13 5/5/5 8/8/8
f 13/13/13 8/8/8 11/11/11
f 14/14/14 4/4/4 5/5/5
f 14/14/14 5/5/5 13/13/13
f 15/15/15 1/1/1 4/4/4
f 15/15/15 4/4/4 14/14/14
