# Blender 4.5.3 LTS
# www.blender.org
mtllib Treed.mtl
o Cylinder
v -0.821412 -0.424579 -3.919491
v -0.860502 0.742189 -1.863163
v 2.442382 -0.141754 -2.345010
v -0.090763 0.580664 -1.821655
v -1.414930 9.948644 0.366567
v -1.713845 9.191522 0.030361
v -0.790039 9.104743 1.038585
v -1.319185 9.183406 1.495474
v -1.790039 9.104743 2.038585
v -2.497146 9.104743 1.745692
v -2.175882 8.176376 1.221957
v -2.447836 8.163824 0.560507
v 0.838225 10.611577 -0.271098
v 2.110788 9.841866 -1.189037
v 2.366610 8.063864 0.731636
v 3.917362 6.913860 0.278760
v 2.208757 16.050184 -3.479760
v 0.622209 9.691240 -6.862367
v -2.396246 16.519890 -3.315807
v -5.030523 12.594877 -4.470690
v -3.024458 16.785591 2.206424
v 2.387327 16.484896 -1.388775
v 2.455188 17.144247 1.252149
v 0.838225 10.611577 -0.271098
v 0.953794 8.652011 -3.912400
v -2.826888 17.048182 0.534352
v -2.897978 16.869335 -1.520528
v -4.297359 10.604017 -3.063878
v 1.417429 13.715702 3.712734
v 1.219679 11.328917 5.068806
v 1.230904 14.278064 -6.023525
v 0.857647 11.383613 -7.511732
v -3.244642 15.834895 -4.008152
v -4.016497 14.505247 -3.860874
v -4.279850 12.945173 2.852928
v -3.506487 15.351664 3.046474
v -4.744283 15.467644 0.652663
v -5.383628 13.164708 -0.287158
v -4.591502 15.838514 -1.232007
v -5.278381 13.411580 -1.118809
v 1.009122 15.861897 3.618126
v -1.379747 16.103189 2.265498
v -1.176163 16.439665 -3.376044
v 0.616640 16.110395 -4.043395
v -1.494110 9.958304 -4.345716
v -3.940268 11.744802 -4.492518
v -3.037769 9.482403 -2.791575
v -0.909931 17.548506 -1.438303
v 0.738698 17.016701 -1.413539
v -0.997212 17.387428 0.913240
v 0.651417 16.855623 0.938004
v -2.907731 14.274258 -5.897316
v -2.183254 12.367336 -5.376966
v -1.596012 15.303091 -3.983388
v 0.221354 14.121827 -4.777912
v -1.447957 12.739980 5.588575
v -2.341251 13.664906 5.170599
v 0.723582 14.240214 4.196052
v -0.823103 14.604702 4.643416
v 1.713803 14.394051 3.281040
v 1.229728 8.493514 4.871160
v 6.223016 13.966582 -3.994694
v 4.573731 8.727130 -4.030697
v 6.854887 13.598776 2.354820
v 5.098076 8.217632 1.988111
v 6.893531 13.912631 0.680362
v 6.902610 13.707923 -1.373313
v 5.013125 7.670011 -1.895120
v 4.925844 7.508934 0.456423
v 6.647133 12.644070 -3.859568
v 5.873770 10.237579 -4.053114
v 5.611926 9.754348 3.001512
v 6.385289 12.160838 3.195057
v 7.522192 11.510803 0.836917
v 6.720923 9.260099 -0.105336
v 7.666210 11.884501 -1.047885
v 6.802408 9.514637 -0.937344
v 3.933029 14.681090 2.542445
v 5.120520 14.006375 2.363138
v 3.729181 8.143847 3.536794
v 2.560175 9.015310 4.259750
v 5.315156 14.457435 -4.038155
v 3.677021 15.123196 -3.997424
v 1.979190 8.817375 -5.486447
v 3.451777 8.362892 -4.271424
v 3.062751 7.776775 -2.098199
v 2.479919 7.593021 -1.645776
v 5.684586 15.421288 -1.339247
v 4.035957 15.953093 -1.364011
v 5.597304 15.260210 1.012296
v 3.948675 15.792015 0.987532
v 4.002927 11.576767 -5.557197
v 3.099390 12.734592 -7.075763
v 4.592206 13.044243 -4.828049
v 2.879533 13.746260 -5.998761
v 1.941304 11.610513 3.952430
v 3.516911 10.743280 4.723838
v 3.080207 13.625881 3.436225
v 4.736659 12.692643 3.170294
v -1.612354 8.979550 -2.757271
v -6.005355 11.754492 -1.882944
v -5.466714 8.371312 -1.652704
v -6.475941 11.968248 2.751404
v -5.724544 8.454905 2.807661
v -2.835701 8.077136 2.357594
v -2.780350 8.410161 -0.432453
v -6.442723 12.092874 1.328243
v -6.426263 11.870909 -0.382165
v -5.570130 8.054705 0.220460
v -5.637103 7.928184 1.569495
v -2.680082 10.295730 5.907399
v -6.293442 11.071922 -2.397691
v -5.894440 9.524990 -2.699449
v -5.965273 9.500053 3.553089
v -6.293442 11.071922 3.553089
v -7.083331 10.615660 1.577883
v -6.707969 9.106838 0.942058
v -7.113183 10.774284 -0.028354
v -6.725755 9.234454 0.227315
v -5.250707 12.132467 2.788942
v -4.611081 8.471039 3.654251
v -3.281725 8.419931 3.553089
v -5.533769 12.088215 -1.826836
v -3.281726 8.419931 -2.397691
v -4.668138 8.487265 -1.925239
v -3.029303 7.926572 -1.005984
v -4.061811 7.736814 -1.019266
v -3.496936 8.080873 2.746030
v -4.463590 7.711012 0.428049
v -5.443923 12.889666 -0.414099
v -5.443923 12.889666 1.569495
v -4.463648 9.467821 -2.615261
v -3.037769 9.482403 -2.791575
v -5.330856 10.964211 -2.822377
v -5.047735 11.443226 -3.574529
v -3.714215 11.057012 4.460464
v -4.787584 9.745928 3.553089
v -3.355800 11.894324 4.449133
v -4.416173 11.613618 4.851421
v -1.433191 8.762175 5.134653
v 0.245161 9.226453 5.582227
v -0.790539 10.517005 5.904690
v -1.858444 11.647421 5.683445
v -2.461503 8.705664 -0.478096
v -0.936786 8.487485 0.366415
v 2.653827 7.768972 -0.902090
v 2.268425 8.544753 -0.326189
v 2.182851 8.827022 -0.549563
v 1.819882 9.086713 -1.013628
v 1.468111 9.109989 -1.691786
v 1.562803 8.738312 -4.068917
v 1.974461 7.859023 -2.114508
v -1.336242 -0.472172 -0.854602
v 0.430565 0.194390 -2.782147
vn -0.4561 -0.2045 0.8661
vn -0.0632 -0.9150 -0.3984
vn -0.3013 -0.9472 -0.1092
vn -0.6563 -0.7080 -0.2609
vn -0.1134 -0.4930 0.8626
vn -0.0610 -0.8949 -0.4421
vn -0.9033 0.1810 0.3890
vn -0.9122 -0.4087 0.0276
vn 0.0297 0.8876 0.4597
vn -0.0137 0.7389 0.6737
vn -0.2083 0.6848 -0.6983
vn -0.5091 0.8176 -0.2690
vn -0.7193 0.6503 0.2446
vn -0.5837 0.8115 0.0274
vn -0.3892 -0.8484 -0.3589
vn -0.1682 0.9145 -0.3679
vn -0.2572 0.9663 -0.0048
vn -0.9611 0.2745 -0.0289
vn -0.9026 0.1763 0.3926
vn -0.8800 0.3172 -0.3534
vn -0.6737 -0.3428 -0.6547
vn -0.4513 0.5758 -0.6817
vn -0.5724 0.4597 0.6790
vn 0.4377 0.3258 0.8380
vn 0.2136 0.3838 0.8984
vn -0.2693 0.7184 -0.6415
vn 0.3306 0.3499 -0.8765
vn -0.6330 0.1560 -0.7583
vn -0.2917 -0.4068 -0.8657
vn 0.0796 0.9919 -0.0987
vn 0.3051 0.9493 0.0763
vn 0.2214 0.9343 -0.2795
vn 0.1487 0.9000 -0.4097
vn 0.6829 -0.7107 0.1690
vn -0.4641 -0.6320 -0.6206
vn -0.3867 -0.7013 -0.5988
vn 0.1025 0.5295 -0.8421
vn -0.1800 0.4274 -0.8860
vn 0.6569 0.1575 0.7374
vn -0.0621 0.6836 0.7273
vn -0.5925 0.5532 0.5857
vn 0.3444 0.7210 0.6013
vn -0.0011 0.8707 0.4919
vn 0.4819 0.7417 0.4665
vn 0.1290 0.4796 0.8679
vn 0.2520 0.7466 -0.6157
vn 0.9213 0.3143 -0.2291
vn 0.9567 0.1097 0.2697
vn 0.9468 0.3177 0.0504
vn -0.2252 -0.9428 -0.2458
vn 0.7013 0.6754 -0.2278
vn 0.7733 0.6339 0.0106
vn 0.7102 -0.7020 -0.0540
vn 0.9408 -0.3390 -0.0003
vn 0.7599 -0.5752 0.3027
vn 0.8245 -0.3808 0.4186
vn 0.7304 -0.5660 -0.3822
vn 0.8829 -0.2963 -0.3642
vn 0.4516 -0.4227 -0.7857
vn -0.0167 0.5493 -0.8355
vn 0.5619 -0.4201 0.7126
vn 0.4382 0.0791 0.8954
vn 0.4795 0.2162 0.8505
vn 0.0913 0.4176 0.9040
vn 0.6213 0.0877 0.7787
vn -0.1353 -0.1864 0.9731
vn 0.5367 0.0121 -0.8437
vn 0.7784 0.2897 -0.5569
vn 0.3704 -0.3799 -0.8476
vn 0.5475 -0.4201 -0.7237
vn 0.5077 0.8574 -0.0836
vn 0.3704 0.8859 -0.2793
vn 0.3204 0.8838 -0.3411
vn 0.1878 -0.9532 -0.2369
vn 0.1288 -0.9261 -0.3547
vn -0.2130 -0.9510 -0.2240
vn 0.3657 0.1787 -0.9134
vn 0.4523 0.4954 -0.7416
vn 0.1928 0.5121 0.8370
vn 0.3632 0.4108 0.8362
vn 0.4311 -0.8359 0.3398
vn 0.3642 0.5942 0.7171
vn 0.3332 0.7028 0.6285
vn -0.4096 0.8576 0.3110
vn -0.0012 -0.9614 0.2752
vn -0.3951 0.7601 0.5159
vn -0.8403 0.4828 -0.2468
vn -0.9465 0.2646 0.1849
vn -0.8892 0.4574 -0.0051
vn 0.4848 -0.8652 -0.1280
vn 0.4643 -0.8856 0.0129
vn -0.6482 0.7021 -0.2948
vn -0.6721 0.7389 -0.0474
vn -0.7097 -0.6970 -0.1027
vn -0.9703 -0.2416 -0.0099
vn -0.8256 -0.5007 0.2602
vn -0.8949 -0.2767 0.3503
vn -0.7567 -0.6138 -0.2250
vn -0.9215 -0.2301 -0.3128
vn -0.2992 -0.3049 0.9042
vn -0.2943 -0.3343 0.8953
vn -0.6916 0.3049 0.6547
vn 0.1304 -0.4544 0.8812
vn -0.6630 -0.4937 0.5628
vn -0.2004 -0.2276 0.9529
vn -0.1427 -0.0286 -0.9893
vn -0.0485 -0.6335 -0.7722
vn -0.2113 -0.4215 -0.8819
vn -0.2782 -0.9554 -0.0987
vn 0.2053 -0.9770 0.0585
vn -0.2768 -0.9128 -0.3004
vn -0.0431 -0.8853 -0.4631
vn -0.2854 0.6226 -0.7286
vn -0.0491 -0.9604 0.2742
vn -0.1209 -0.9572 0.2629
vn -0.0190 0.1747 0.9844
vn -0.0400 -0.3892 0.9203
vn -0.2033 -0.3337 -0.9205
vn -0.2621 -0.6618 -0.7024
vn -0.9499 0.0928 -0.2984
vn -0.9441 0.3066 -0.1209
vn -0.9246 0.3029 -0.2310
vn -0.3880 0.9135 0.1227
vn -0.5767 0.6500 0.4950
vn 0.2350 -0.9646 0.1192
vn 0.6003 -0.7058 -0.3761
vn -0.5162 -0.1690 0.8396
vn -0.0928 -0.3273 -0.9404
vn 0.8640 0.0150 0.5033
vn 0.5809 -0.7130 -0.3926
vn -0.2817 -0.9561 0.0811
vn -0.7220 -0.6062 0.3335
vn 0.6061 0.6223 0.4953
vn -0.4985 -0.8252 0.2657
vn 0.4588 0.0043 0.8885
vn 0.2116 0.1987 0.9569
vn -0.5428 0.2221 0.8100
vn 0.3631 -0.8030 -0.4726
vn 0.1775 -0.9051 -0.3863
vn -0.8731 -0.4565 0.1710
vn 0.2404 -0.8516 0.4659
vn 0.1017 -0.8747 0.4739
vn 0.4754 -0.8483 0.2331
vn -0.6768 -0.5830 -0.4495
vn -0.1576 -0.9841 -0.0815
vn 0.3986 -0.6092 -0.6856
vn -0.6363 -0.3299 -0.6973
vn 0.7447 -0.3722 0.5539
vt 0.410500 0.534571
vt 0.321732 0.457516
vt 0.314670 0.501841
vt 0.520105 0.593574
vt 0.609461 0.649317
vt 0.580016 0.622491
vt 0.619877 0.636661
vt 0.594384 0.636588
vt 0.685598 0.658438
vt 0.587499 0.613665
vt 0.610869 0.624319
vt 0.647922 0.626875
vt 0.557163 0.605052
vt 0.572053 0.604360
vt 0.577213 0.593420
vt 0.533418 0.580476
vt 0.590145 0.520422
vt 0.567326 0.489821
vt 0.579143 0.482502
vt 0.603505 0.511183
vt 0.685532 0.511260
vt 0.586535 0.464622
vt 0.553892 0.546768
vt 0.582396 0.559890
vt 0.615347 0.595161
vt 0.571200 0.580254
vt 0.526528 0.453198
vt 0.552168 0.492106
vt 0.556657 0.508496
vt 0.534370 0.492982
vt 0.530802 0.442699
vt 0.481818 0.508603
vt 0.550118 0.562785
vt 0.477030 0.554825
vt 0.416725 0.497075
vt 0.571033 0.529779
vt 0.580470 0.527001
vt 0.478374 0.375662
vt 0.478862 0.395090
vt 0.578912 0.411685
vt 0.500552 0.467778
vt 0.510385 0.510096
vt 0.531362 0.572432
vt 0.671230 0.476678
vt 0.762266 0.547041
vt 0.703363 0.571296
vt 0.688159 0.544935
vt 0.704553 0.496396
vt 0.552024 0.521785
vt 0.507238 0.499347
vt 0.467178 0.448142
vt 0.501656 0.464503
vt 0.622596 0.596647
vt 0.609957 0.559421
vt 0.609238 0.551995
vt 0.649535 0.585604
vt 0.357772 0.423999
vt 0.451894 0.450919
vt 0.500476 0.414246
vt 0.694089 0.575094
vt 0.668334 0.547131
vt 0.543552 0.368906
vt 0.625959 0.402303
vt 0.654283 0.435376
vt 0.690451 0.675122
vt 0.710405 0.662039
vt 0.720422 0.704196
vt 0.718927 0.728196
vt 0.709659 0.648751
vt 0.734486 0.692520
vt 0.594037 0.615877
vt 0.636085 0.629138
vt 0.837545 0.913177
vt 0.702647 0.727525
vt 0.687314 0.703481
vt 0.742315 0.767238
vt 0.778273 0.775599
vt 0.561338 0.596332
vt 0.665926 0.670954
vt 0.684282 0.691885
vt 0.711556 0.680447
vt 0.663259 0.681899
vt 0.740444 0.761337
vt 0.790158 0.729629
vt 0.757960 0.669924
vt 0.754773 0.671610
vt 0.646557 0.662939
vt 0.696092 0.701015
vt 0.574482 0.606859
vt 0.781502 0.635375
vt 0.756363 0.621734
vt 0.745030 0.584135
vt 0.706758 0.606911
vt 0.848437 0.558759
vt 0.793230 0.599383
vt 0.610057 0.641526
vt 0.637898 0.657634
vt 0.600753 0.629487
vt 0.670454 0.629528
vt 0.656945 0.639155
vt 0.692078 0.624589
vt 0.456973 0.351038
vt 0.428760 0.295789
vt 0.523762 0.328474
vt 0.705780 0.383066
vt 0.730844 0.406669
vt 0.848437 0.468069
vt 0.742646 0.400885
vt 0.566332 0.346280
vt 0.338905 0.096903
vt 0.338860 0.261935
vt 0.434422 0.338645
vt 0.477064 0.334284
vt 0.477547 0.250252
vt 0.412097 0.421311
vt 0.345273 0.399374
vt 0.406934 0.365592
vt 0.467227 0.344544
vt 0.500428 0.321177
vt 0.500694 0.267338
vt 0.471099 0.230754
vt 0.482164 0.317776
vt 0.590590 0.334358
vt 0.605530 0.341768
vt 0.483411 0.357868
vt 0.494727 0.349572
vt 0.677747 0.367087
vt 0.657581 0.371589
vt 0.734829 0.458588
vt 0.661086 0.418643
vt 0.496585 0.377801
vt 0.469949 0.396930
vt 0.453819 0.379382
vt 0.470884 0.440611
vt 0.405057 0.373412
vt 0.475826 0.349804
vt 0.762330 0.497963
vt 0.710780 0.473854
vt 0.844591 0.522367
vt 0.486971 0.405650
vt 0.488892 0.402615
vt 0.093234 0.517722
vt 0.692541 0.393342
vt 0.836270 0.413754
vt 0.838703 0.458480
vt 0.603027 0.545567
vt 0.758635 0.506658
vt 0.848811 0.113297
vt 0.921944 0.096903
vt 0.921944 0.138577
vt 0.702342 0.618299
vt 0.540698 0.561065
vt 0.875000 0.500000
vt 0.000000 0.000000
vt 1.000000 0.500000
vt 1.000000 1.000000
vt 0.875000 1.000000
vt 0.000000 1.000000
s 0
usemtl Material.001
f 5/1/1 144/2/1 6/3/1
f 151/4/2 86/5/2 152/6/2
f 146/7/3 87/8/3 86/5/3 16/9/3
f 148/10/4 147/11/4 16/9/4 15/12/4
f 150/13/5 149/14/5 14/15/5 13/16/5
f 86/5/6 87/8/6 152/6/6
f 149/14/7 148/10/7 15/12/7 14/15/7
f 13/16/8 151/4/8 150/13/8
f 50/17/9 26/18/9 21/19/9 42/20/9
f 59/21/10 42/20/10 21/19/10 36/22/10
f 55/23/11 44/24/11 17/25/11 31/26/11
f 39/27/12 27/28/12 19/29/12 33/30/12
f 36/22/13 21/19/13 26/18/13 37/31/13
f 37/31/14 26/18/14 27/28/14 39/27/14
f 45/32/15 18/33/15 25/34/15 100/35/15
f 43/36/16 19/29/16 27/28/16 48/37/16
f 48/37/17 27/28/17 26/18/17 50/17/17
f 38/38/18 37/31/18 39/27/18 40/39/18
f 35/40/19 36/22/19 37/31/19 38/38/19
f 40/39/20 39/27/20 33/30/20 34/41/20
f 45/32/21 53/42/21 32/43/21 18/33/21
f 53/42/22 55/23/22 31/26/22 32/43/22
f 57/44/23 59/21/23 36/22/23 35/40/23
f 30/45/24 29/46/24 58/47/24 56/48/24
f 56/48/25 58/47/25 59/21/25 57/44/25
f 34/41/26 33/30/26 54/49/26 52/50/26
f 52/50/27 54/49/27 55/23/27 53/42/27
f 20/51/28 34/41/28 52/50/28 46/52/28
f 46/52/29 52/50/29 53/42/29 45/32/29
f 22/53/30 49/54/30 51/55/30 23/56/30
f 49/54/31 48/37/31 50/17/31 51/55/31
f 17/25/32 44/24/32 49/54/32 22/53/32
f 44/24/33 43/36/33 48/37/33 49/54/33
f 144/2/34 106/57/34 100/35/34
f 20/51/35 46/52/35 47/58/35 28/59/35
f 46/52/36 45/32/36 100/35/36 47/58/36
f 33/30/37 19/29/37 43/36/37 54/49/37
f 54/49/38 43/36/38 44/24/38 55/23/38
f 29/46/39 60/60/39 41/61/39 58/47/39
f 58/47/40 41/61/40 42/20/40 59/21/40
f 57/44/41 35/40/41 120/62/41 139/63/41 138/64/41
f 23/56/42 51/55/42 41/61/42 60/60/42
f 51/55/43 50/17/43 42/20/43 41/61/43
f 90/65/44 79/66/44 64/67/44 66/68/44
f 99/69/45 73/70/45 64/67/45 79/66/45
f 95/71/46 31/26/46 17/25/46 83/72/46
f 76/73/47 70/74/47 62/75/47 67/76/47
f 73/70/48 74/77/48 66/68/48 64/67/48
f 74/77/49 76/73/49 67/76/49 66/68/49
f 84/78/50 151/4/50 25/34/50 18/33/50
f 82/79/51 88/80/51 67/76/51 62/75/51
f 88/80/52 90/65/52 66/68/52 67/76/52
f 69/81/53 68/82/53 77/83/53 75/84/53
f 75/84/54 77/83/54 76/73/54 74/77/54
f 65/85/55 69/81/55 75/84/55 72/86/55
f 72/86/56 75/84/56 74/77/56 73/70/56
f 68/82/57 63/87/57 71/88/57 77/83/57
f 77/83/58 71/88/58 70/74/58 76/73/58
f 84/78/59 18/33/59 32/43/59 93/89/59
f 93/89/60 32/43/60 31/26/60 95/71/60
f 80/90/61 65/85/61 72/86/61 97/91/61
f 97/91/62 72/86/62 73/70/62 99/69/62
f 30/45/63 96/92/63 98/93/63 29/46/63
f 96/92/64 97/91/64 99/69/64 98/93/64
f 61/94/65 81/95/65 96/92/65 30/45/65
f 81/95/66 80/90/66 97/91/66 96/92/66
f 71/88/67 92/96/67 94/97/67 70/74/67
f 92/96/68 93/89/68 95/71/68 94/97/68
f 63/87/69 85/98/69 92/96/69 71/88/69
f 85/98/70 84/78/70 93/89/70 92/96/70
f 22/53/71 23/56/71 91/99/71 89/100/71
f 89/100/31 91/99/31 90/65/31 88/80/31
f 17/25/72 22/53/72 89/100/72 83/72/72
f 83/72/73 89/100/73 88/80/73 82/79/73
f 68/82/74 69/81/74 16/9/74 86/5/74
f 63/87/75 68/82/75 86/5/75 85/98/75
f 85/98/76 86/5/76 151/4/76 84/78/76
f 70/74/77 94/97/77 82/79/77 62/75/77
f 94/97/78 95/71/78 83/72/78 82/79/78
f 29/46/79 98/93/79 78/101/79 60/60/79
f 98/93/80 99/69/80 79/66/80 78/101/80
f 69/81/81 65/85/81 80/90/81 16/9/81
f 23/56/82 60/60/82 78/101/82 91/99/82
f 91/99/83 78/101/83 79/66/83 90/65/83
f 131/102/84 107/103/84 103/104/84 120/62/84
f 128/105/85 105/106/85 140/107/85 122/108/85
f 139/63/86 120/62/86 103/104/86 115/109/86
f 118/110/87 108/111/87 101/112/87 112/113/87
f 115/109/88 103/104/88 107/103/88 116/114/88
f 116/114/89 107/103/89 108/111/89 118/110/89
f 124/115/90 100/35/90 106/57/90 126/116/90
f 126/116/91 106/57/91 105/106/91 128/105/91
f 123/117/92 101/112/92 108/111/92 130/118/92
f 130/118/93 108/111/93 107/103/93 131/102/93
f 110/119/94 117/120/94 119/121/94 109/122/94
f 117/120/95 116/114/95 118/110/95 119/121/95
f 104/123/96 114/124/96 117/120/96 110/119/96
f 114/124/97 115/109/97 116/114/97 117/120/97
f 109/122/98 119/121/98 113/125/98 102/126/98
f 119/121/99 118/110/99 112/113/99 113/125/99
f 121/127/100 137/128/100 114/124/100 104/123/100
f 137/128/101 139/63/101 115/109/101 114/124/101
f 111/129/102 138/64/102 136/130/102
f 136/130/103 138/64/103 139/63/103 137/128/103
f 140/107/104 111/129/104 136/130/104 122/108/104
f 122/108/105 136/130/105 137/128/105 121/127/105
f 113/125/106 112/113/106 134/131/106 132/132/106
f 102/126/107 113/125/107 132/132/107 125/133/107
f 125/133/108 132/132/108 133/134/108 124/115/108
f 109/122/109 127/135/109 129/136/109 110/119/109
f 127/135/110 126/116/110 128/105/110 129/136/110
f 102/126/111 125/133/111 127/135/111 109/122/111
f 125/133/112 124/115/112 126/116/112 127/135/112
f 112/113/113 101/112/113 123/117/113 134/131/113
f 110/119/114 129/136/114 121/127/114 104/123/114
f 129/136/115 128/105/115 122/108/115 121/127/115
f 111/129/116 142/137/116 143/138/116
f 140/107/117 141/139/117 142/137/117 111/129/117
f 47/58/118 133/134/118 132/132/118 134/131/118 28/59/118
f 135/140/119 20/51/119 28/59/119 134/131/119
f 134/131/120 123/117/120 135/140/120
f 123/117/121 34/41/121 20/51/121 135/140/121
f 38/38/122 40/39/122 34/41/122 123/117/122 130/118/122
f 131/102/123 35/40/123 38/38/123 130/118/123
f 131/102/124 120/62/124 35/40/124
f 140/107/125 105/106/125 141/139/125
f 144/2/126 12/141/126 106/57/126
f 6/3/127 145/142/127 5/1/127
f 124/115/128 133/134/128 47/58/128 100/35/128
f 105/106/129 11/143/129 10/144/129
f 10/144/130 9/145/130 141/139/130 105/106/130
f 7/146/131 61/94/131 141/139/131 9/145/131 8/147/131
f 16/9/132 147/11/132 146/7/132
f 15/148/133 16/149/133 14/150/133
f 16/9/134 80/90/134 81/95/134 15/151/134
f 61/94/135 30/45/135 142/137/135 141/139/135
f 30/45/136 56/48/136 143/138/136 142/137/136
f 57/44/137 138/64/137 111/129/137 143/138/137 56/48/137
f 7/146/138 5/1/138 24/152/138 61/94/138
f 61/94/139 24/152/139 81/95/139
f 15/151/140 81/95/140 24/152/140
f 151/4/141 13/16/141 24/152/141 25/34/141
f 100/35/142 25/34/142 24/152/142
f 100/35/143 24/152/143 5/1/143 144/2/143
f 14/15/144 15/151/144 24/152/144 13/16/144
f 11/143/145 105/106/145 106/57/145 12/141/145
f 3/153/146 153/154/146 1/155/146 2/156/146 4/157/146
f 2/158/147 154/154/147 153/154/147
f 4/157/148 153/154/148 154/154/148
o Cylinder.001
v -0.821412 -0.424579 -3.919491
v -0.860502 0.742189 -1.863163
v 2.442382 -0.141754 -2.345010
v -0.090763 0.580664 -1.821655
v 0.544208 -0.230987 -1.083685
v 0.253741 0.625097 -0.826364
v 0.369306 -0.085051 0.051929
v -0.111644 0.213127 0.227736
v -0.098407 -1.176814 1.921136
v -0.698839 0.530999 0.615630
v -1.739710 -0.113412 0.055957
v -1.556823 0.814639 0.112754
v -4.228810 -0.405484 -0.198648
v -2.547109 0.275580 -0.603470
v -2.273675 -0.263419 -1.926906
v -2.215641 0.207217 -2.013176
v 0.497050 4.986160 -2.108768
v -0.210056 4.986160 -2.401662
v 0.789944 4.986160 -1.401662
v 0.497050 4.986160 -0.694555
v -0.210056 4.986160 -0.401662
v -1.040973 4.912905 -0.558734
v -1.221358 4.845461 -1.020515
v -0.917163 4.986160 -2.108768
v -1.414930 9.948644 0.366567
v -1.713845 9.191522 0.030361
v -0.790039 9.104743 1.038585
v -1.319185 9.183406 1.495474
v -1.790039 9.104743 2.038585
v -2.497146 9.104743 1.745692
v -2.175882 8.176376 1.221957
v -2.447836 8.163824 0.560507
v -0.188539 5.356222 -1.936587
v -0.676074 5.849726 -1.664043
v -0.839732 6.238018 -1.552195
v -0.303179 6.620654 -0.869414
v 0.216299 6.419802 -0.448850
v 0.404616 6.045326 -0.280141
v 0.467370 5.434190 -0.782743
v 0.520284 5.308803 -1.673462
v -0.656078 6.074113 0.212426
v -1.204302 5.959195 -1.616751
v -1.361918 5.824241 -0.104993
v -1.580822 5.779888 -0.650766
v -0.610116 8.116010 0.772646
v 2.479919 7.593021 -1.645776
v -2.461503 8.705664 -0.478096
v -0.936786 8.487485 0.366415
v 2.653827 7.768972 -0.902090
v 2.268425 8.544753 -0.326189
v 2.182851 8.827022 -0.549563
v 1.819882 9.086713 -1.013628
v 1.468111 9.109989 -1.691786
v 1.562803 8.738312 -4.068917
v 1.974461 7.859023 -2.114508
v -1.336242 -0.472172 -0.854602
v 0.430565 0.194390 -2.782147
vn 0.5292 0.7590 0.3794
vn 0.8447 0.4651 0.2649
vn 0.6152 0.6117 0.4973
vn -0.5808 0.2716 0.7674
vn -0.3441 0.5615 0.7525
vn 0.4856 0.1241 0.8653
vn -0.5813 0.7045 -0.4070
vn -0.4616 0.6844 -0.5644
vn 0.1434 -0.9788 0.1465
vn -0.9398 0.2511 -0.2319
vn 0.9268 -0.1526 -0.3430
vn -0.3311 0.2201 0.9176
vn -0.0539 -0.0584 -0.9968
vn 0.2064 -0.1222 -0.9708
vn 0.9396 -0.0626 0.3365
vn -0.7474 0.2367 0.6208
vn 0.7048 -0.1545 0.6924
vn 0.7411 0.5596 -0.3711
vn -0.5953 -0.5361 0.5985
vn 0.7518 -0.5647 0.3406
vn -0.9284 -0.1642 -0.3332
vn -0.8056 -0.4623 0.3705
vn -0.0750 0.5566 -0.8274
vn 0.6091 -0.1608 0.7766
vn -0.2236 -0.5428 0.8096
vn 0.5222 -0.4120 0.7467
vn -0.8107 0.5311 -0.2463
vn -0.4998 0.4564 0.7362
vn -0.9280 -0.2638 -0.2629
vn -0.8074 -0.4745 0.3507
vn 0.8537 0.2772 -0.4409
vn 0.3537 -0.6230 -0.6977
vn -0.7236 0.6171 0.3094
vn -0.4025 0.3396 0.8501
vn 0.5211 -0.2515 -0.8156
vn -0.1237 -0.4588 0.8799
vn 0.6360 -0.3979 -0.6612
vn -0.6997 0.5745 -0.4248
vn -0.1692 -0.9846 -0.0437
vn -0.0554 -0.9880 -0.1439
vn 0.0676 -0.9177 0.3915
vn -0.5880 -0.8069 0.0574
vn 0.3951 -0.8329 -0.3876
vn 0.1435 -0.9785 0.1479
vn 0.0706 0.9210 0.3832
vn -0.4031 0.9136 -0.0535
vn -0.0180 -0.8698 0.4932
vn -0.2117 -0.9411 0.2636
vn -0.2142 -0.9410 0.2622
vt 0.370419 0.445287
vt 0.379911 0.504013
vt 0.295163 0.454706
vt 0.315503 0.442431
vt 0.271521 0.403871
vt 0.298798 0.414019
vt 0.255807 0.323625
vt 0.299198 0.357201
vt 0.323403 0.272719
vt 0.335107 0.299125
vt 0.433617 0.273738
vt 0.406156 0.313436
vt 0.187114 0.503698
vt 0.135616 0.278430
vt 0.476513 0.357370
vt 0.456671 0.352397
vt 0.484331 0.464555
vt 0.443510 0.411770
vt 0.379538 0.364613
vt 0.534690 0.179600
vt 0.586148 0.529654
vt 0.357498 0.586220
vt 0.271529 0.570462
vt 0.427016 0.130302
vt 0.460073 0.590318
vt 0.188592 0.554233
vt 0.176158 0.601465
vt 0.097276 0.656078
vt 0.167179 0.666377
vt 0.287222 0.901372
vt 0.281204 0.999915
vt 0.612208 0.751486
vt 0.509435 0.720636
vt 0.300527 0.658236
vt 0.276303 0.670166
vt 0.558737 0.176041
vt 0.613230 0.543146
vt 0.427384 0.096031
vt 0.482978 0.637814
vt 0.468221 0.610780
vt 0.013126 0.440118
vt 0.000085 0.195054
vt 0.104582 0.263534
vt 0.028222 0.801427
vt 0.105659 0.096942
vt 0.400199 0.000085
vt 0.260805 0.707073
vt 0.318766 0.797786
vt 0.353233 0.718511
vt 0.267225 0.723972
vt 0.277383 0.760879
vt 0.634424 0.145589
vt 0.727437 0.502417
vt 0.000085 0.877640
vt 0.328826 0.663383
vt 0.338756 0.594524
vt 0.413105 0.446505
s 0
usemtl Material.002
f 157/159/149 158/160/149 160/161/149 159/162/149
f 159/162/150 160/161/150 162/163/150 161/164/150
f 161/164/151 162/163/151 164/165/151 163/166/151
f 163/166/152 164/165/152 166/167/152 165/168/152
f 165/168/153 166/167/153 168/169/153 167/170/153
f 164/165/154 162/163/154 174/171/154 175/172/154
f 167/170/155 168/169/155 170/173/155 169/174/155
f 169/174/156 170/173/156 156/175/156 155/176/156
f 159/162/157 210/177/157 157/159/157
f 170/173/158 168/169/158 177/178/158 178/179/158
f 160/161/159 158/160/159 171/180/159 173/181/159
f 166/167/160 164/165/160 175/172/160 176/182/160
f 156/175/161 170/173/161 178/179/161 172/183/161
f 158/160/162 156/175/162 172/183/162 171/180/162
f 162/163/163 160/161/163 173/181/163 174/171/163
f 168/169/164 166/167/164 176/182/164 177/178/164
f 175/172/165 174/171/165 173/181/165 193/184/165 192/185/165
f 199/186/166 191/187/166 190/188/166 202/189/166
f 180/190/167 189/191/167 190/188/167 202/189/167
f 173/181/168 200/192/168 203/193/168 193/184/168
f 178/179/169 177/178/169 198/194/169 196/195/169
f 177/178/170 176/182/170 197/196/170 198/194/170
f 178/179/171 196/195/171 188/197/171 187/198/171 172/183/171
f 182/199/172 183/200/172 195/201/172 175/172/172 192/185/172 191/187/172 199/186/172 181/202/172
f 175/172/173 195/201/173 183/200/173 184/203/173 185/204/173 197/196/173 176/182/173
f 192/185/174 193/184/174 203/193/174 204/205/174
f 188/197/175 189/191/175 207/206/175 208/207/175
f 190/188/176 191/187/176 205/208/176 206/209/176
f 196/195/177 198/194/177 186/210/177 201/211/177
f 198/194/178 197/196/178 185/204/178 186/210/178
f 181/202/179 199/186/179 202/189/179 179/212/179
f 187/198/180 188/197/180 208/207/180 209/213/180
f 189/191/181 190/188/181 206/209/181 207/206/181
f 191/187/182 192/185/182 204/205/182 205/208/182
f 173/181/183 171/180/183 194/214/183 200/192/183
f 201/211/184 196/195/184 188/197/184 189/191/184 180/190/184
f 171/180/185 172/183/185 209/213/185 200/192/185 194/214/185
f 209/213/186 172/183/186 187/198/186
f 155/176/187 210/177/187 169/174/187
f 169/174/188 210/177/188 167/170/188
f 167/170/189 210/177/189 165/168/189
f 165/168/190 210/177/190 163/166/190
f 163/166/191 210/177/191 161/164/191
f 161/164/192 210/177/192 159/162/192
f 210/177/193 157/159/193 211/215/193
f 211/215/194 155/176/194 210/177/194
f 156/175/195 155/176/195 211/215/195
f 156/175/196 211/215/196 158/160/196
f 158/160/197 211/215/197 157/159/197
